<svg width="1440" height="259" viewBox="0 0 1440 259" fill="none" xmlns="http://www.w3.org/2000/svg">
<g filter="url(#filter0_d_11_666)">
<rect width="1440" height="172" transform="translate(0 87)" fill="white"/>
<g clip-path="url(#clip0_11_666)">
<path d="M657 151.495L660.016 148.139C661.526 149.817 663.571 150.377 665.784 150.377C668.533 150.377 670.009 149.22 670.009 147.095C670.009 146.162 669.775 145.379 669.272 144.857C668.802 144.373 668.265 144.112 667.158 143.925L664.275 143.477C662.23 143.142 660.721 142.433 659.648 141.277C658.508 140.008 657.939 138.292 657.939 136.056C657.939 131.319 661.09 128 666.254 128C669.539 128 671.92 128.895 673.966 131.096L671.014 134.339C669.506 132.736 667.695 132.513 666.119 132.513C663.638 132.513 662.431 134.042 662.431 135.869C662.431 136.54 662.632 137.248 663.135 137.77C663.605 138.256 664.376 138.665 665.348 138.816L668.165 139.263C670.344 139.599 671.719 140.269 672.724 141.313C673.999 142.656 674.569 144.595 674.569 146.946C674.569 152.091 670.713 155 665.717 155C662.096 155 659.346 154.143 657 151.495Z" fill="#359740"/>
<path d="M678.962 154.777V128.223H694.686V132.848H683.621V139.077H693.044V143.7H683.621V150.152H694.686V154.777H678.962Z" fill="#359740"/>
<path d="M699.247 154.777V128.223H714.972V132.848H703.907V139.077H713.33V143.7H703.907V150.152H714.972V154.777H699.247Z" fill="#359740"/>
<path d="M754.304 154.777L749.643 144.186H746.29V154.777H741.63V128.223H750.985C755.846 128.223 758.729 131.916 758.729 136.353C758.729 140.083 756.684 142.395 754.37 143.328L759.702 154.777H754.304ZM750.682 132.848H746.29V139.86H750.682C752.727 139.86 754.069 138.405 754.069 136.353C754.069 134.303 752.727 132.848 750.682 132.848Z" fill="#359740"/>
<path d="M777.137 154.777L775.73 150.078H767.247L765.804 154.777H760.943L769.627 128.223H773.281L782 154.777H777.137ZM771.572 136.056L768.554 145.715H774.489L771.572 136.056Z" fill="#359740"/>
<path d="M734.454 130.76C732.877 129.008 730.631 128.223 728.149 128.223H719.533V154.777H724.757C726.557 149.62 729.281 143.995 727.424 135.66C729.898 144.352 727.451 149.875 725.725 154.777H728.149C730.631 154.777 732.877 153.994 734.454 152.241C737.136 149.257 736.868 145.378 736.868 141.388C736.868 137.398 737.137 133.743 734.454 130.76ZM727.262 151.64C728.599 148.303 730.005 142.951 728.005 136.39C730.681 139.734 731.095 144.676 730.528 146.93C735.371 141.517 730.394 135.191 725.428 132.496C728.594 138.42 728.117 144.002 725.658 150.718C717.933 145.32 727.104 138.443 724.505 131.042C735.723 135.84 737.723 146.631 727.262 151.64Z" fill="#359740"/>
</g>
<g clip-path="url(#clip1_11_666)">
<path d="M167.224 146L171.046 136.2H172.754L176.548 146H174.658L172.558 140.428C172.511 140.316 172.446 140.139 172.362 139.896C172.287 139.653 172.203 139.392 172.11 139.112C172.017 138.823 171.933 138.557 171.858 138.314C171.783 138.062 171.727 137.88 171.69 137.768L172.04 137.754C171.984 137.941 171.919 138.151 171.844 138.384C171.769 138.617 171.69 138.86 171.606 139.112C171.522 139.364 171.438 139.607 171.354 139.84C171.279 140.073 171.209 140.283 171.144 140.47L169.044 146H167.224ZM168.96 143.76L169.59 142.178H174.056L174.728 143.76H168.96ZM177.601 146V136.2H179.421V144.32H183.943V146H177.601ZM185.533 146V136.2H187.353V144.32H191.875V146H185.533ZM197.09 146V136.2H201.164C201.724 136.2 202.228 136.335 202.676 136.606C203.134 136.877 203.498 137.245 203.768 137.712C204.039 138.179 204.174 138.701 204.174 139.28C204.174 139.868 204.039 140.4 203.768 140.876C203.498 141.343 203.134 141.716 202.676 141.996C202.228 142.276 201.724 142.416 201.164 142.416H198.91V146H197.09ZM198.91 140.736H201.038C201.272 140.736 201.482 140.671 201.668 140.54C201.864 140.409 202.018 140.237 202.13 140.022C202.252 139.807 202.312 139.565 202.312 139.294C202.312 139.023 202.252 138.785 202.13 138.58C202.018 138.365 201.864 138.197 201.668 138.076C201.482 137.945 201.272 137.88 201.038 137.88H198.91V140.736ZM205.61 146V136.2H209.866C210.454 136.2 210.991 136.34 211.476 136.62C211.961 136.891 212.344 137.264 212.624 137.74C212.913 138.207 213.058 138.734 213.058 139.322C213.058 139.882 212.913 140.4 212.624 140.876C212.344 141.343 211.961 141.716 211.476 141.996C211 142.267 210.463 142.402 209.866 142.402H207.388V146H205.61ZM211.294 146L208.802 141.576L210.678 141.226L213.45 146.014L211.294 146ZM207.388 140.82H209.88C210.151 140.82 210.384 140.759 210.58 140.638C210.785 140.507 210.944 140.33 211.056 140.106C211.168 139.882 211.224 139.635 211.224 139.364C211.224 139.056 211.154 138.79 211.014 138.566C210.874 138.342 210.678 138.165 210.426 138.034C210.174 137.903 209.885 137.838 209.558 137.838H207.388V140.82ZM218.973 146.14C218.273 146.14 217.624 146.014 217.027 145.762C216.43 145.51 215.907 145.16 215.459 144.712C215.02 144.255 214.68 143.718 214.437 143.102C214.194 142.486 214.073 141.814 214.073 141.086C214.073 140.358 214.194 139.686 214.437 139.07C214.68 138.454 215.02 137.922 215.459 137.474C215.907 137.017 216.43 136.662 217.027 136.41C217.624 136.158 218.273 136.032 218.973 136.032C219.682 136.032 220.336 136.158 220.933 136.41C221.53 136.662 222.048 137.017 222.487 137.474C222.926 137.931 223.266 138.468 223.509 139.084C223.752 139.691 223.873 140.358 223.873 141.086C223.873 141.805 223.752 142.472 223.509 143.088C223.266 143.704 222.926 144.241 222.487 144.698C222.048 145.155 221.53 145.51 220.933 145.762C220.336 146.014 219.682 146.14 218.973 146.14ZM218.973 144.404C219.421 144.404 219.827 144.325 220.191 144.166C220.564 143.998 220.886 143.765 221.157 143.466C221.428 143.158 221.638 142.803 221.787 142.402C221.946 142.001 222.025 141.562 222.025 141.086C222.025 140.61 221.946 140.171 221.787 139.77C221.638 139.369 221.428 139.019 221.157 138.72C220.886 138.412 220.564 138.179 220.191 138.02C219.827 137.852 219.421 137.768 218.973 137.768C218.534 137.768 218.128 137.852 217.755 138.02C217.382 138.179 217.06 138.407 216.789 138.706C216.518 139.005 216.308 139.355 216.159 139.756C216.01 140.157 215.935 140.601 215.935 141.086C215.935 141.562 216.01 142.005 216.159 142.416C216.308 142.817 216.518 143.167 216.789 143.466C217.06 143.765 217.382 143.998 217.755 144.166C218.128 144.325 218.534 144.404 218.973 144.404ZM225.357 146V136.2H229.291C230 136.2 230.639 136.317 231.209 136.55C231.787 136.783 232.282 137.119 232.693 137.558C233.113 137.997 233.43 138.515 233.645 139.112C233.869 139.709 233.981 140.372 233.981 141.1C233.981 141.828 233.869 142.495 233.645 143.102C233.43 143.699 233.117 144.217 232.707 144.656C232.296 145.085 231.801 145.417 231.223 145.65C230.644 145.883 230 146 229.291 146H225.357ZM227.177 144.586L227.037 144.32H229.221C229.678 144.32 230.084 144.245 230.439 144.096C230.803 143.947 231.111 143.732 231.363 143.452C231.615 143.172 231.806 142.836 231.937 142.444C232.067 142.043 232.133 141.595 232.133 141.1C232.133 140.605 232.067 140.162 231.937 139.77C231.806 139.369 231.61 139.028 231.349 138.748C231.097 138.468 230.793 138.253 230.439 138.104C230.084 137.955 229.678 137.88 229.221 137.88H226.995L227.177 137.642V144.586ZM239.382 146.084C238.608 146.084 237.917 145.921 237.31 145.594C236.704 145.258 236.223 144.801 235.868 144.222C235.523 143.634 235.35 142.971 235.35 142.234V136.186H237.184V142.108C237.184 142.547 237.282 142.939 237.478 143.284C237.684 143.62 237.954 143.891 238.29 144.096C238.626 144.301 238.99 144.404 239.382 144.404C239.812 144.404 240.199 144.301 240.544 144.096C240.89 143.891 241.16 143.62 241.356 143.284C241.562 142.939 241.664 142.547 241.664 142.108V136.186H243.428V142.234C243.428 142.971 243.251 143.634 242.896 144.222C242.551 144.801 242.075 145.258 241.468 145.594C240.862 145.921 240.166 146.084 239.382 146.084ZM249.617 146.14C248.907 146.14 248.259 146.019 247.671 145.776C247.083 145.533 246.574 145.188 246.145 144.74C245.715 144.283 245.379 143.746 245.137 143.13C244.903 142.505 244.787 141.823 244.787 141.086C244.787 140.377 244.913 139.719 245.165 139.112C245.417 138.505 245.767 137.973 246.215 137.516C246.663 137.059 247.185 136.704 247.783 136.452C248.38 136.2 249.029 136.074 249.729 136.074C250.205 136.074 250.667 136.144 251.115 136.284C251.563 136.424 251.973 136.62 252.347 136.872C252.72 137.115 253.033 137.399 253.285 137.726L252.123 139C251.88 138.748 251.628 138.538 251.367 138.37C251.115 138.193 250.849 138.062 250.569 137.978C250.298 137.885 250.018 137.838 249.729 137.838C249.299 137.838 248.893 137.917 248.511 138.076C248.137 138.235 247.811 138.459 247.531 138.748C247.26 139.037 247.045 139.383 246.887 139.784C246.728 140.176 246.649 140.615 246.649 141.1C246.649 141.595 246.723 142.043 246.873 142.444C247.031 142.845 247.251 143.191 247.531 143.48C247.82 143.769 248.161 143.993 248.553 144.152C248.954 144.301 249.393 144.376 249.869 144.376C250.177 144.376 250.475 144.334 250.765 144.25C251.054 144.166 251.32 144.049 251.563 143.9C251.815 143.741 252.043 143.559 252.249 143.354L253.145 144.796C252.921 145.048 252.622 145.277 252.249 145.482C251.875 145.687 251.455 145.851 250.989 145.972C250.531 146.084 250.074 146.14 249.617 146.14ZM256.499 146V137.88H253.699V136.2H261.203V137.88H258.319V146H256.499ZM265.606 146.14C265.037 146.14 264.514 146.07 264.038 145.93C263.562 145.781 263.133 145.561 262.75 145.272C262.368 144.983 262.027 144.633 261.728 144.222L262.918 142.878C263.376 143.513 263.824 143.951 264.262 144.194C264.701 144.437 265.196 144.558 265.746 144.558C266.064 144.558 266.353 144.511 266.614 144.418C266.876 144.315 267.081 144.18 267.23 144.012C267.38 143.835 267.454 143.634 267.454 143.41C267.454 143.251 267.422 143.107 267.356 142.976C267.3 142.836 267.212 142.715 267.09 142.612C266.969 142.5 266.82 142.397 266.642 142.304C266.465 142.211 266.264 142.131 266.04 142.066C265.816 142.001 265.569 141.94 265.298 141.884C264.785 141.781 264.337 141.646 263.954 141.478C263.572 141.301 263.25 141.086 262.988 140.834C262.727 140.573 262.536 140.283 262.414 139.966C262.293 139.639 262.232 139.271 262.232 138.86C262.232 138.449 262.321 138.071 262.498 137.726C262.685 137.381 262.937 137.082 263.254 136.83C263.572 136.578 263.94 136.382 264.36 136.242C264.78 136.102 265.233 136.032 265.718 136.032C266.269 136.032 266.759 136.097 267.188 136.228C267.627 136.359 268.01 136.555 268.336 136.816C268.672 137.068 268.948 137.376 269.162 137.74L267.958 138.93C267.772 138.641 267.562 138.403 267.328 138.216C267.095 138.02 266.843 137.875 266.572 137.782C266.302 137.679 266.017 137.628 265.718 137.628C265.382 137.628 265.088 137.675 264.836 137.768C264.594 137.861 264.402 137.997 264.262 138.174C264.122 138.342 264.052 138.547 264.052 138.79C264.052 138.977 264.094 139.145 264.178 139.294C264.262 139.434 264.379 139.56 264.528 139.672C264.687 139.784 264.888 139.882 265.13 139.966C265.373 140.05 265.648 140.125 265.956 140.19C266.47 140.293 266.932 140.433 267.342 140.61C267.753 140.778 268.103 140.983 268.392 141.226C268.682 141.459 268.901 141.73 269.05 142.038C269.2 142.337 269.274 142.673 269.274 143.046C269.274 143.69 269.12 144.245 268.812 144.712C268.514 145.169 268.089 145.524 267.538 145.776C266.988 146.019 266.344 146.14 265.606 146.14Z" fill="#359740"/>
<line x1="302.5" y1="128" x2="302.5" y2="153" stroke="#4FA083"/>
<path d="M334.35 146L338.144 136.2H339.684L343.45 146H341.84L339.6 140.092C339.572 140.027 339.516 139.868 339.432 139.616C339.357 139.364 339.269 139.084 339.166 138.776C339.063 138.468 338.97 138.188 338.886 137.936C338.802 137.675 338.746 137.507 338.718 137.432L339.04 137.418C338.984 137.577 338.914 137.777 338.83 138.02C338.755 138.263 338.671 138.519 338.578 138.79C338.494 139.061 338.41 139.317 338.326 139.56C338.242 139.793 338.172 139.989 338.116 140.148L335.89 146H334.35ZM336.03 143.564L336.59 142.108H341.042L341.686 143.564H336.03ZM345.175 146V136.2H349.263C349.888 136.2 350.415 136.293 350.845 136.48C351.274 136.667 351.596 136.947 351.811 137.32C352.035 137.684 352.147 138.132 352.147 138.664C352.147 139.196 351.997 139.649 351.699 140.022C351.409 140.395 351.003 140.652 350.481 140.792V140.512C350.919 140.605 351.302 140.773 351.629 141.016C351.955 141.249 352.207 141.543 352.385 141.898C352.571 142.253 352.665 142.659 352.665 143.116C352.665 143.583 352.59 143.998 352.441 144.362C352.301 144.717 352.086 145.015 351.797 145.258C351.517 145.501 351.176 145.687 350.775 145.818C350.373 145.939 349.916 146 349.403 146H345.175ZM346.687 144.544H349.319C349.701 144.544 350.023 144.488 350.285 144.376C350.555 144.264 350.761 144.101 350.901 143.886C351.05 143.662 351.125 143.396 351.125 143.088C351.125 142.799 351.045 142.551 350.887 142.346C350.737 142.141 350.523 141.987 350.243 141.884C349.963 141.772 349.631 141.716 349.249 141.716H346.687V144.544ZM346.687 140.26H349.179C349.459 140.26 349.706 140.204 349.921 140.092C350.145 139.98 350.317 139.826 350.439 139.63C350.569 139.434 350.635 139.21 350.635 138.958C350.635 138.538 350.495 138.216 350.215 137.992C349.935 137.768 349.533 137.656 349.011 137.656H346.687V140.26ZM358.806 146.14C358.115 146.14 357.476 146.014 356.888 145.762C356.309 145.51 355.801 145.16 355.362 144.712C354.933 144.255 354.597 143.723 354.354 143.116C354.121 142.5 354.004 141.828 354.004 141.1C354.004 140.372 354.121 139.705 354.354 139.098C354.597 138.482 354.933 137.95 355.362 137.502C355.801 137.045 356.309 136.69 356.888 136.438C357.476 136.186 358.115 136.06 358.806 136.06C359.497 136.06 360.131 136.186 360.71 136.438C361.298 136.69 361.807 137.045 362.236 137.502C362.675 137.959 363.011 138.496 363.244 139.112C363.487 139.719 363.608 140.381 363.608 141.1C363.608 141.819 363.487 142.486 363.244 143.102C363.011 143.709 362.675 144.241 362.236 144.698C361.807 145.155 361.298 145.51 360.71 145.762C360.131 146.014 359.497 146.14 358.806 146.14ZM358.806 144.67C359.282 144.67 359.716 144.581 360.108 144.404C360.509 144.227 360.855 143.979 361.144 143.662C361.433 143.335 361.657 142.957 361.816 142.528C361.984 142.089 362.068 141.613 362.068 141.1C362.068 140.587 361.984 140.115 361.816 139.686C361.657 139.247 361.433 138.869 361.144 138.552C360.855 138.225 360.509 137.973 360.108 137.796C359.716 137.619 359.282 137.53 358.806 137.53C358.33 137.53 357.891 137.619 357.49 137.796C357.098 137.973 356.753 138.221 356.454 138.538C356.165 138.855 355.941 139.233 355.782 139.672C355.623 140.101 355.544 140.577 355.544 141.1C355.544 141.613 355.623 142.089 355.782 142.528C355.941 142.967 356.165 143.345 356.454 143.662C356.753 143.979 357.098 144.227 357.49 144.404C357.891 144.581 358.33 144.67 358.806 144.67ZM369.463 146.084C368.707 146.084 368.031 145.921 367.433 145.594C366.836 145.258 366.365 144.801 366.019 144.222C365.683 143.634 365.515 142.971 365.515 142.234V136.186H367.027V142.108C367.027 142.584 367.139 143.013 367.363 143.396C367.587 143.769 367.881 144.068 368.245 144.292C368.619 144.516 369.025 144.628 369.463 144.628C369.93 144.628 370.35 144.516 370.723 144.292C371.106 144.068 371.409 143.769 371.633 143.396C371.857 143.013 371.969 142.584 371.969 142.108V136.186H373.411V142.234C373.411 142.971 373.239 143.634 372.893 144.222C372.557 144.801 372.091 145.258 371.493 145.594C370.896 145.921 370.219 146.084 369.463 146.084ZM377.88 146V137.656H375.136V136.2H382.22V137.656H379.392V146H377.88ZM391.033 146.14C390.501 146.14 390.006 146.07 389.549 145.93C389.101 145.79 388.69 145.58 388.317 145.3C387.953 145.011 387.626 144.656 387.337 144.236L388.373 143.046C388.83 143.699 389.269 144.152 389.689 144.404C390.109 144.656 390.608 144.782 391.187 144.782C391.541 144.782 391.863 144.726 392.153 144.614C392.442 144.502 392.671 144.348 392.839 144.152C393.007 143.956 393.091 143.732 393.091 143.48C393.091 143.312 393.063 143.153 393.007 143.004C392.951 142.855 392.862 142.719 392.741 142.598C392.629 142.477 392.479 142.365 392.293 142.262C392.115 142.159 391.905 142.071 391.663 141.996C391.42 141.912 391.14 141.842 390.823 141.786C390.319 141.683 389.88 141.548 389.507 141.38C389.133 141.212 388.821 141.002 388.569 140.75C388.317 140.498 388.13 140.213 388.009 139.896C387.887 139.569 387.827 139.205 387.827 138.804C387.827 138.412 387.911 138.048 388.079 137.712C388.256 137.376 388.494 137.087 388.793 136.844C389.101 136.592 389.46 136.401 389.871 136.27C390.281 136.13 390.725 136.06 391.201 136.06C391.705 136.06 392.167 136.125 392.587 136.256C393.007 136.387 393.38 136.583 393.707 136.844C394.033 137.096 394.304 137.409 394.519 137.782L393.455 138.832C393.268 138.524 393.058 138.267 392.825 138.062C392.591 137.847 392.335 137.689 392.055 137.586C391.775 137.474 391.476 137.418 391.159 137.418C390.795 137.418 390.477 137.474 390.207 137.586C389.936 137.698 389.721 137.857 389.563 138.062C389.413 138.258 389.339 138.491 389.339 138.762C389.339 138.958 389.376 139.14 389.451 139.308C389.525 139.467 389.637 139.611 389.787 139.742C389.945 139.863 390.155 139.975 390.417 140.078C390.678 140.171 390.991 140.255 391.355 140.33C391.868 140.442 392.325 140.587 392.727 140.764C393.128 140.932 393.469 141.133 393.749 141.366C394.029 141.599 394.239 141.861 394.379 142.15C394.528 142.439 394.603 142.752 394.603 143.088C394.603 143.713 394.458 144.255 394.169 144.712C393.879 145.169 393.469 145.524 392.937 145.776C392.405 146.019 391.77 146.14 391.033 146.14ZM396.745 146V136.2H402.919V137.656H398.257V144.544H402.919V146H396.745ZM397.431 141.702V140.246H402.149V141.702H397.431ZM405.345 146V136.2H411.519V137.656H406.857V144.544H411.519V146H405.345ZM406.031 141.702V140.246H410.749V141.702H406.031ZM413.944 146V136.2H417.78C418.48 136.2 419.11 136.317 419.67 136.55C420.24 136.783 420.725 137.119 421.126 137.558C421.528 137.997 421.836 138.515 422.05 139.112C422.265 139.709 422.372 140.372 422.372 141.1C422.372 141.828 422.265 142.495 422.05 143.102C421.836 143.699 421.528 144.217 421.126 144.656C420.734 145.085 420.254 145.417 419.684 145.65C419.115 145.883 418.48 146 417.78 146H413.944ZM415.456 144.698L415.414 144.544H417.71C418.205 144.544 418.644 144.465 419.026 144.306C419.418 144.147 419.745 143.923 420.006 143.634C420.277 143.335 420.482 142.971 420.622 142.542C420.762 142.113 420.832 141.632 420.832 141.1C420.832 140.568 420.762 140.092 420.622 139.672C420.482 139.243 420.277 138.879 420.006 138.58C419.736 138.281 419.409 138.053 419.026 137.894C418.644 137.735 418.205 137.656 417.71 137.656H415.372L415.456 137.53V144.698ZM424.417 146V136.2H428.589C429.149 136.2 429.662 136.34 430.129 136.62C430.605 136.891 430.983 137.264 431.263 137.74C431.543 138.207 431.683 138.734 431.683 139.322C431.683 139.854 431.543 140.349 431.263 140.806C430.983 141.263 430.61 141.632 430.143 141.912C429.676 142.183 429.158 142.318 428.589 142.318H425.929V146H424.417ZM430.241 146L427.749 141.576L429.303 141.226L432.075 146.014L430.241 146ZM425.929 140.862H428.729C429 140.862 429.242 140.797 429.457 140.666C429.672 140.526 429.84 140.339 429.961 140.106C430.082 139.863 430.143 139.597 430.143 139.308C430.143 138.981 430.064 138.697 429.905 138.454C429.756 138.202 429.541 138.006 429.261 137.866C428.99 137.726 428.682 137.656 428.337 137.656H425.929V140.862ZM433.129 146L436.923 136.2H438.463L442.229 146H440.619L438.379 140.092C438.351 140.027 438.295 139.868 438.211 139.616C438.137 139.364 438.048 139.084 437.945 138.776C437.843 138.468 437.749 138.188 437.665 137.936C437.581 137.675 437.525 137.507 437.497 137.432L437.819 137.418C437.763 137.577 437.693 137.777 437.609 138.02C437.535 138.263 437.451 138.519 437.357 138.79C437.273 139.061 437.189 139.317 437.105 139.56C437.021 139.793 436.951 139.989 436.895 140.148L434.669 146H433.129ZM434.809 143.564L435.369 142.108H439.821L440.465 143.564H434.809Z" fill="#70737C"/>
<line x1="475.5" y1="128" x2="475.5" y2="153" stroke="#4FA083"/>
<path d="M512.474 146.14C511.783 146.14 511.144 146.014 510.556 145.762C509.977 145.51 509.469 145.16 509.03 144.712C508.601 144.255 508.265 143.723 508.022 143.116C507.789 142.5 507.672 141.828 507.672 141.1C507.672 140.372 507.789 139.705 508.022 139.098C508.265 138.482 508.601 137.95 509.03 137.502C509.469 137.045 509.977 136.69 510.556 136.438C511.144 136.186 511.783 136.06 512.474 136.06C513.165 136.06 513.799 136.186 514.378 136.438C514.966 136.69 515.475 137.045 515.904 137.502C516.343 137.959 516.679 138.496 516.912 139.112C517.155 139.719 517.276 140.381 517.276 141.1C517.276 141.819 517.155 142.486 516.912 143.102C516.679 143.709 516.343 144.241 515.904 144.698C515.475 145.155 514.966 145.51 514.378 145.762C513.799 146.014 513.165 146.14 512.474 146.14ZM512.474 144.67C512.95 144.67 513.384 144.581 513.776 144.404C514.177 144.227 514.523 143.979 514.812 143.662C515.101 143.335 515.325 142.957 515.484 142.528C515.652 142.089 515.736 141.613 515.736 141.1C515.736 140.587 515.652 140.115 515.484 139.686C515.325 139.247 515.101 138.869 514.812 138.552C514.523 138.225 514.177 137.973 513.776 137.796C513.384 137.619 512.95 137.53 512.474 137.53C511.998 137.53 511.559 137.619 511.158 137.796C510.766 137.973 510.421 138.221 510.122 138.538C509.833 138.855 509.609 139.233 509.45 139.672C509.291 140.101 509.212 140.577 509.212 141.1C509.212 141.613 509.291 142.089 509.45 142.528C509.609 142.967 509.833 143.345 510.122 143.662C510.421 143.979 510.766 144.227 511.158 144.404C511.559 144.581 511.998 144.67 512.474 144.67ZM523.131 146.084C522.375 146.084 521.699 145.921 521.101 145.594C520.504 145.258 520.033 144.801 519.687 144.222C519.351 143.634 519.183 142.971 519.183 142.234V136.186H520.695V142.108C520.695 142.584 520.807 143.013 521.031 143.396C521.255 143.769 521.549 144.068 521.913 144.292C522.287 144.516 522.693 144.628 523.131 144.628C523.598 144.628 524.018 144.516 524.391 144.292C524.774 144.068 525.077 143.769 525.301 143.396C525.525 143.013 525.637 142.584 525.637 142.108V136.186H527.079V142.234C527.079 142.971 526.907 143.634 526.561 144.222C526.225 144.801 525.759 145.258 525.161 145.594C524.564 145.921 523.887 146.084 523.131 146.084ZM529.686 146V136.2H533.858C534.418 136.2 534.932 136.34 535.398 136.62C535.874 136.891 536.252 137.264 536.532 137.74C536.812 138.207 536.952 138.734 536.952 139.322C536.952 139.854 536.812 140.349 536.532 140.806C536.252 141.263 535.879 141.632 535.412 141.912C534.946 142.183 534.428 142.318 533.858 142.318H531.198V146H529.686ZM535.51 146L533.018 141.576L534.572 141.226L537.344 146.014L535.51 146ZM531.198 140.862H533.998C534.269 140.862 534.512 140.797 534.726 140.666C534.941 140.526 535.109 140.339 535.23 140.106C535.352 139.863 535.412 139.597 535.412 139.308C535.412 138.981 535.333 138.697 535.174 138.454C535.025 138.202 534.81 138.006 534.53 137.866C534.26 137.726 533.952 137.656 533.606 137.656H531.198V140.862ZM543.345 146V136.2H547.433C548.058 136.2 548.585 136.293 549.015 136.48C549.444 136.667 549.766 136.947 549.981 137.32C550.205 137.684 550.317 138.132 550.317 138.664C550.317 139.196 550.167 139.649 549.869 140.022C549.579 140.395 549.173 140.652 548.651 140.792V140.512C549.089 140.605 549.472 140.773 549.799 141.016C550.125 141.249 550.377 141.543 550.555 141.898C550.741 142.253 550.835 142.659 550.835 143.116C550.835 143.583 550.76 143.998 550.611 144.362C550.471 144.717 550.256 145.015 549.967 145.258C549.687 145.501 549.346 145.687 548.945 145.818C548.543 145.939 548.086 146 547.573 146H543.345ZM544.857 144.544H547.489C547.871 144.544 548.193 144.488 548.455 144.376C548.725 144.264 548.931 144.101 549.071 143.886C549.22 143.662 549.295 143.396 549.295 143.088C549.295 142.799 549.215 142.551 549.057 142.346C548.907 142.141 548.693 141.987 548.413 141.884C548.133 141.772 547.801 141.716 547.419 141.716H544.857V144.544ZM544.857 140.26H547.349C547.629 140.26 547.876 140.204 548.091 140.092C548.315 139.98 548.487 139.826 548.609 139.63C548.739 139.434 548.805 139.21 548.805 138.958C548.805 138.538 548.665 138.216 548.385 137.992C548.105 137.768 547.703 137.656 547.181 137.656H544.857V140.26ZM552.874 146V136.2H554.386V144.544H558.978V146H552.874ZM565.083 146.14C564.393 146.14 563.753 146.014 563.165 145.762C562.587 145.51 562.078 145.16 561.639 144.712C561.21 144.255 560.874 143.723 560.631 143.116C560.398 142.5 560.281 141.828 560.281 141.1C560.281 140.372 560.398 139.705 560.631 139.098C560.874 138.482 561.21 137.95 561.639 137.502C562.078 137.045 562.587 136.69 563.165 136.438C563.753 136.186 564.393 136.06 565.083 136.06C565.774 136.06 566.409 136.186 566.987 136.438C567.575 136.69 568.084 137.045 568.513 137.502C568.952 137.959 569.288 138.496 569.521 139.112C569.764 139.719 569.885 140.381 569.885 141.1C569.885 141.819 569.764 142.486 569.521 143.102C569.288 143.709 568.952 144.241 568.513 144.698C568.084 145.155 567.575 145.51 566.987 145.762C566.409 146.014 565.774 146.14 565.083 146.14ZM565.083 144.67C565.559 144.67 565.993 144.581 566.385 144.404C566.787 144.227 567.132 143.979 567.421 143.662C567.711 143.335 567.935 142.957 568.093 142.528C568.261 142.089 568.345 141.613 568.345 141.1C568.345 140.587 568.261 140.115 568.093 139.686C567.935 139.247 567.711 138.869 567.421 138.552C567.132 138.225 566.787 137.973 566.385 137.796C565.993 137.619 565.559 137.53 565.083 137.53C564.607 137.53 564.169 137.619 563.767 137.796C563.375 137.973 563.03 138.221 562.731 138.538C562.442 138.855 562.218 139.233 562.059 139.672C561.901 140.101 561.821 140.577 561.821 141.1C561.821 141.613 561.901 142.089 562.059 142.528C562.218 142.967 562.442 143.345 562.731 143.662C563.03 143.979 563.375 144.227 563.767 144.404C564.169 144.581 564.607 144.67 565.083 144.67ZM576.315 146.14C575.605 146.14 574.943 146.014 574.327 145.762C573.711 145.501 573.169 145.141 572.703 144.684C572.236 144.227 571.872 143.695 571.611 143.088C571.359 142.472 571.233 141.809 571.233 141.1C571.233 140.4 571.359 139.747 571.611 139.14C571.872 138.533 572.231 138.006 572.689 137.558C573.155 137.101 573.697 136.746 574.313 136.494C574.929 136.242 575.591 136.116 576.301 136.116C576.795 136.116 577.276 136.186 577.743 136.326C578.219 136.466 578.648 136.662 579.031 136.914C579.413 137.166 579.726 137.455 579.969 137.782L578.989 138.804C578.709 138.533 578.419 138.309 578.121 138.132C577.831 137.955 577.533 137.819 577.225 137.726C576.917 137.633 576.609 137.586 576.301 137.586C575.797 137.586 575.33 137.675 574.901 137.852C574.481 138.029 574.107 138.277 573.781 138.594C573.463 138.911 573.216 139.285 573.039 139.714C572.861 140.134 572.773 140.596 572.773 141.1C572.773 141.585 572.866 142.047 573.053 142.486C573.239 142.915 573.496 143.293 573.823 143.62C574.159 143.947 574.541 144.203 574.971 144.39C575.409 144.577 575.871 144.67 576.357 144.67C576.721 144.67 577.066 144.619 577.393 144.516C577.719 144.404 578.009 144.25 578.261 144.054C578.513 143.858 578.709 143.634 578.849 143.382C578.989 143.121 579.059 142.845 579.059 142.556V142.276L579.269 142.472H576.273V140.974H580.613C580.631 141.077 580.645 141.179 580.655 141.282C580.664 141.375 580.669 141.469 580.669 141.562C580.678 141.646 580.683 141.73 580.683 141.814C580.683 142.458 580.571 143.046 580.347 143.578C580.123 144.101 579.81 144.553 579.409 144.936C579.017 145.319 578.555 145.617 578.023 145.832C577.5 146.037 576.931 146.14 576.315 146.14Z" fill="#70737C"/>
</g>
<g clip-path="url(#clip2_11_666)">
<path d="M855.234 146V137.656H852.49V136.2H859.574V137.656H856.746V146H855.234ZM863.11 146.14C862.354 146.14 861.682 145.981 861.094 145.664C860.515 145.337 860.058 144.894 859.722 144.334C859.395 143.774 859.232 143.13 859.232 142.402C859.232 141.823 859.325 141.296 859.512 140.82C859.699 140.344 859.955 139.933 860.282 139.588C860.618 139.233 861.015 138.963 861.472 138.776C861.939 138.58 862.443 138.482 862.984 138.482C863.46 138.482 863.903 138.575 864.314 138.762C864.725 138.939 865.079 139.187 865.378 139.504C865.686 139.821 865.919 140.199 866.078 140.638C866.246 141.067 866.325 141.539 866.316 142.052L866.302 142.668H860.296L859.974 141.52H865.056L864.846 141.758V141.422C864.818 141.114 864.715 140.839 864.538 140.596C864.361 140.353 864.137 140.162 863.866 140.022C863.595 139.882 863.301 139.812 862.984 139.812C862.48 139.812 862.055 139.91 861.71 140.106C861.365 140.293 861.103 140.573 860.926 140.946C860.749 141.31 860.66 141.763 860.66 142.304C860.66 142.817 860.767 143.265 860.982 143.648C861.197 144.021 861.5 144.311 861.892 144.516C862.284 144.721 862.737 144.824 863.25 144.824C863.614 144.824 863.95 144.763 864.258 144.642C864.575 144.521 864.916 144.301 865.28 143.984L866.008 145.006C865.784 145.23 865.509 145.426 865.182 145.594C864.865 145.762 864.524 145.897 864.16 146C863.805 146.093 863.455 146.14 863.11 146.14ZM867.883 146V138.65H869.339V140.96L869.199 140.4C869.302 140.045 869.474 139.723 869.717 139.434C869.969 139.145 870.254 138.916 870.571 138.748C870.898 138.58 871.234 138.496 871.579 138.496C871.738 138.496 871.887 138.51 872.027 138.538C872.176 138.566 872.293 138.599 872.377 138.636L871.999 140.204C871.887 140.157 871.761 140.12 871.621 140.092C871.49 140.055 871.36 140.036 871.229 140.036C870.977 140.036 870.734 140.087 870.501 140.19C870.277 140.283 870.076 140.419 869.899 140.596C869.731 140.764 869.596 140.965 869.493 141.198C869.39 141.422 869.339 141.669 869.339 141.94V146H867.883ZM873.501 146V138.65H874.957V140.218L874.691 140.386C874.766 140.143 874.883 139.91 875.041 139.686C875.209 139.462 875.41 139.266 875.643 139.098C875.886 138.921 876.143 138.781 876.413 138.678C876.693 138.575 876.978 138.524 877.267 138.524C877.687 138.524 878.056 138.594 878.373 138.734C878.691 138.874 878.952 139.084 879.157 139.364C879.363 139.644 879.512 139.994 879.605 140.414L879.381 140.358L879.479 140.12C879.582 139.905 879.722 139.705 879.899 139.518C880.086 139.322 880.296 139.149 880.529 139C880.763 138.851 881.01 138.734 881.271 138.65C881.533 138.566 881.789 138.524 882.041 138.524C882.592 138.524 883.045 138.636 883.399 138.86C883.763 139.084 884.034 139.425 884.211 139.882C884.398 140.339 884.491 140.909 884.491 141.59V146H883.035V141.674C883.035 141.254 882.979 140.913 882.867 140.652C882.765 140.381 882.606 140.181 882.391 140.05C882.177 139.919 881.901 139.854 881.565 139.854C881.304 139.854 881.057 139.901 880.823 139.994C880.599 140.078 880.403 140.199 880.235 140.358C880.067 140.517 879.937 140.703 879.843 140.918C879.75 141.123 879.703 141.352 879.703 141.604V146H878.247V141.646C878.247 141.263 878.191 140.941 878.079 140.68C877.967 140.409 877.804 140.204 877.589 140.064C877.375 139.924 877.113 139.854 876.805 139.854C876.544 139.854 876.301 139.901 876.077 139.994C875.853 140.078 875.657 140.199 875.489 140.358C875.321 140.507 875.191 140.689 875.097 140.904C875.004 141.109 874.957 141.333 874.957 141.576V146H873.501ZM888.872 146.14C888.256 146.14 887.701 146.033 887.206 145.818C886.711 145.603 886.301 145.286 885.974 144.866L886.954 144.026C887.234 144.353 887.537 144.591 887.864 144.74C888.2 144.88 888.578 144.95 888.998 144.95C889.166 144.95 889.32 144.931 889.46 144.894C889.609 144.847 889.735 144.782 889.838 144.698C889.95 144.614 890.034 144.516 890.09 144.404C890.146 144.283 890.174 144.152 890.174 144.012C890.174 143.769 890.085 143.573 889.908 143.424C889.815 143.359 889.665 143.289 889.46 143.214C889.264 143.13 889.007 143.046 888.69 142.962C888.149 142.822 887.705 142.663 887.36 142.486C887.015 142.309 886.749 142.108 886.562 141.884C886.422 141.707 886.319 141.515 886.254 141.31C886.189 141.095 886.156 140.862 886.156 140.61C886.156 140.302 886.221 140.022 886.352 139.77C886.492 139.509 886.679 139.285 886.912 139.098C887.155 138.902 887.435 138.753 887.752 138.65C888.079 138.547 888.424 138.496 888.788 138.496C889.133 138.496 889.474 138.543 889.81 138.636C890.155 138.729 890.473 138.865 890.762 139.042C891.051 139.219 891.294 139.429 891.49 139.672L890.664 140.582C890.487 140.405 890.291 140.251 890.076 140.12C889.871 139.98 889.661 139.873 889.446 139.798C889.231 139.723 889.035 139.686 888.858 139.686C888.662 139.686 888.485 139.705 888.326 139.742C888.167 139.779 888.032 139.835 887.92 139.91C887.817 139.985 887.738 140.078 887.682 140.19C887.626 140.302 887.598 140.428 887.598 140.568C887.607 140.689 887.635 140.806 887.682 140.918C887.738 141.021 887.813 141.109 887.906 141.184C888.009 141.259 888.163 141.338 888.368 141.422C888.573 141.506 888.835 141.585 889.152 141.66C889.619 141.781 890.001 141.917 890.3 142.066C890.608 142.206 890.851 142.369 891.028 142.556C891.215 142.733 891.345 142.939 891.42 143.172C891.495 143.405 891.532 143.667 891.532 143.956C891.532 144.376 891.411 144.754 891.168 145.09C890.935 145.417 890.617 145.673 890.216 145.86C889.815 146.047 889.367 146.14 888.872 146.14ZM900.163 146L898.889 144.642L898.665 144.39L896.243 141.688C896.01 141.427 895.786 141.161 895.571 140.89C895.357 140.61 895.165 140.335 894.997 140.064C894.839 139.793 894.708 139.532 894.605 139.28C894.512 139.019 894.465 138.776 894.465 138.552C894.465 138.076 894.587 137.651 894.829 137.278C895.081 136.895 895.422 136.597 895.851 136.382C896.29 136.167 896.794 136.06 897.363 136.06C897.783 136.06 898.175 136.139 898.539 136.298C898.903 136.447 899.216 136.662 899.477 136.942C899.748 137.213 899.944 137.53 900.065 137.894L898.973 138.594C898.796 138.165 898.577 137.852 898.315 137.656C898.063 137.46 897.746 137.362 897.363 137.362C897.074 137.362 896.831 137.409 896.635 137.502C896.439 137.586 896.29 137.712 896.187 137.88C896.085 138.048 896.033 138.258 896.033 138.51C896.033 138.715 896.089 138.944 896.201 139.196C896.323 139.439 896.472 139.686 896.649 139.938C896.827 140.19 897.009 140.423 897.195 140.638C897.382 140.853 897.545 141.039 897.685 141.198L899.631 143.368L900.037 143.816L902.039 146H900.163ZM896.397 146.14C895.735 146.14 895.133 146 894.591 145.72C894.05 145.431 893.616 145.053 893.289 144.586C892.972 144.11 892.813 143.592 892.813 143.032C892.813 142.295 893.014 141.655 893.415 141.114C893.826 140.573 894.423 140.157 895.207 139.868L896.103 140.946C895.506 141.077 895.063 141.296 894.773 141.604C894.484 141.903 894.339 142.309 894.339 142.822C894.339 143.214 894.433 143.559 894.619 143.858C894.806 144.157 895.072 144.39 895.417 144.558C895.772 144.726 896.192 144.81 896.677 144.81C897.097 144.81 897.48 144.731 897.825 144.572C898.18 144.404 898.497 144.171 898.777 143.872C899.057 143.573 899.286 143.214 899.463 142.794C899.65 142.374 899.785 141.907 899.869 141.394H901.157C901.083 141.963 900.947 142.491 900.751 142.976C900.565 143.461 900.327 143.9 900.037 144.292C899.757 144.684 899.431 145.02 899.057 145.3C898.693 145.571 898.287 145.781 897.839 145.93C897.391 146.07 896.911 146.14 896.397 146.14ZM907.811 146.14C907.13 146.14 906.504 146.019 905.935 145.776C905.366 145.533 904.871 145.188 904.451 144.74C904.031 144.283 903.704 143.746 903.471 143.13C903.247 142.514 903.135 141.837 903.135 141.1C903.135 140.4 903.256 139.751 903.499 139.154C903.751 138.547 904.096 138.015 904.535 137.558C904.974 137.101 905.482 136.746 906.061 136.494C906.64 136.242 907.265 136.116 907.937 136.116C908.413 136.116 908.875 136.191 909.323 136.34C909.78 136.48 910.191 136.681 910.555 136.942C910.928 137.194 911.232 137.483 911.465 137.81L910.457 138.86C910.186 138.589 909.911 138.365 909.631 138.188C909.36 138.001 909.08 137.861 908.791 137.768C908.511 137.675 908.226 137.628 907.937 137.628C907.48 137.628 907.05 137.717 906.649 137.894C906.257 138.062 905.912 138.3 905.613 138.608C905.324 138.916 905.095 139.285 904.927 139.714C904.759 140.134 904.675 140.596 904.675 141.1C904.675 141.632 904.754 142.117 904.913 142.556C905.081 142.985 905.314 143.354 905.613 143.662C905.912 143.97 906.266 144.208 906.677 144.376C907.097 144.535 907.559 144.614 908.063 144.614C908.371 144.614 908.674 144.572 908.973 144.488C909.272 144.404 909.552 144.283 909.813 144.124C910.074 143.965 910.312 143.779 910.527 143.564L911.283 144.796C911.068 145.048 910.774 145.277 910.401 145.482C910.037 145.687 909.626 145.851 909.169 145.972C908.721 146.084 908.268 146.14 907.811 146.14ZM916.277 146.14C915.558 146.14 914.914 145.977 914.345 145.65C913.785 145.314 913.342 144.861 913.015 144.292C912.688 143.713 912.525 143.055 912.525 142.318C912.525 141.581 912.688 140.927 913.015 140.358C913.342 139.779 913.785 139.327 914.345 139C914.914 138.664 915.558 138.496 916.277 138.496C916.986 138.496 917.621 138.664 918.181 139C918.75 139.327 919.198 139.779 919.525 140.358C919.852 140.927 920.015 141.581 920.015 142.318C920.015 143.055 919.852 143.713 919.525 144.292C919.198 144.861 918.75 145.314 918.181 145.65C917.621 145.977 916.986 146.14 916.277 146.14ZM916.277 144.824C916.716 144.824 917.108 144.717 917.453 144.502C917.798 144.278 918.069 143.979 918.265 143.606C918.461 143.223 918.554 142.794 918.545 142.318C918.554 141.833 918.461 141.403 918.265 141.03C918.069 140.647 917.798 140.349 917.453 140.134C917.108 139.919 916.716 139.812 916.277 139.812C915.838 139.812 915.442 139.924 915.087 140.148C914.742 140.363 914.471 140.661 914.275 141.044C914.079 141.417 913.986 141.842 913.995 142.318C913.986 142.794 914.079 143.223 914.275 143.606C914.471 143.979 914.742 144.278 915.087 144.502C915.442 144.717 915.838 144.824 916.277 144.824ZM921.586 146V138.65H923.028V140.162L922.776 140.33C922.869 140.003 923.051 139.705 923.322 139.434C923.593 139.154 923.915 138.93 924.288 138.762C924.661 138.585 925.044 138.496 925.436 138.496C925.996 138.496 926.463 138.608 926.836 138.832C927.209 139.047 927.489 139.378 927.676 139.826C927.863 140.274 927.956 140.839 927.956 141.52V146H926.514V141.618C926.514 141.198 926.458 140.853 926.346 140.582C926.234 140.302 926.061 140.101 925.828 139.98C925.595 139.849 925.305 139.793 924.96 139.812C924.68 139.812 924.423 139.859 924.19 139.952C923.957 140.036 923.751 140.157 923.574 140.316C923.406 140.475 923.271 140.661 923.168 140.876C923.075 141.081 923.028 141.305 923.028 141.548V146H922.314C922.193 146 922.071 146 921.95 146C921.829 146 921.707 146 921.586 146ZM932.978 146.14C932.306 146.14 931.704 145.977 931.172 145.65C930.65 145.314 930.234 144.861 929.926 144.292C929.618 143.713 929.464 143.055 929.464 142.318C929.464 141.581 929.614 140.927 929.912 140.358C930.22 139.779 930.636 139.327 931.158 139C931.681 138.664 932.274 138.496 932.936 138.496C933.3 138.496 933.65 138.557 933.986 138.678C934.332 138.79 934.64 138.949 934.91 139.154C935.181 139.35 935.391 139.569 935.54 139.812C935.699 140.045 935.778 140.283 935.778 140.526L935.358 140.554V135.64H936.8V146H935.358V144.25H935.638C935.638 144.474 935.564 144.698 935.414 144.922C935.265 145.137 935.064 145.337 934.812 145.524C934.57 145.711 934.285 145.86 933.958 145.972C933.641 146.084 933.314 146.14 932.978 146.14ZM933.174 144.894C933.613 144.894 934 144.782 934.336 144.558C934.672 144.334 934.934 144.031 935.12 143.648C935.316 143.256 935.414 142.813 935.414 142.318C935.414 141.823 935.316 141.385 935.12 141.002C934.934 140.61 934.672 140.302 934.336 140.078C934 139.854 933.613 139.742 933.174 139.742C932.736 139.742 932.348 139.854 932.012 140.078C931.676 140.302 931.41 140.61 931.214 141.002C931.028 141.385 930.934 141.823 930.934 142.318C930.934 142.813 931.028 143.256 931.214 143.648C931.41 144.031 931.676 144.334 932.012 144.558C932.348 144.782 932.736 144.894 933.174 144.894ZM939.023 146V138.65H940.465V146H939.023ZM939.723 137.026C939.415 137.026 939.177 136.947 939.009 136.788C938.841 136.629 938.757 136.405 938.757 136.116C938.757 135.845 938.841 135.626 939.009 135.458C939.187 135.29 939.425 135.206 939.723 135.206C940.031 135.206 940.269 135.285 940.437 135.444C940.605 135.603 940.689 135.827 940.689 136.116C940.689 136.387 940.601 136.606 940.423 136.774C940.255 136.942 940.022 137.026 939.723 137.026ZM943.592 146V136.774H945.034V146H943.592ZM942.066 140.05V138.65H946.742V140.05H942.066ZM948.293 146V138.65H949.735V146H948.293ZM948.993 137.026C948.685 137.026 948.447 136.947 948.279 136.788C948.111 136.629 948.027 136.405 948.027 136.116C948.027 135.845 948.111 135.626 948.279 135.458C948.456 135.29 948.694 135.206 948.993 135.206C949.301 135.206 949.539 135.285 949.707 135.444C949.875 135.603 949.959 135.827 949.959 136.116C949.959 136.387 949.87 136.606 949.693 136.774C949.525 136.942 949.292 137.026 948.993 137.026ZM955.255 146.14C954.537 146.14 953.893 145.977 953.323 145.65C952.763 145.314 952.32 144.861 951.993 144.292C951.667 143.713 951.503 143.055 951.503 142.318C951.503 141.581 951.667 140.927 951.993 140.358C952.32 139.779 952.763 139.327 953.323 139C953.893 138.664 954.537 138.496 955.255 138.496C955.965 138.496 956.599 138.664 957.159 139C957.729 139.327 958.177 139.779 958.503 140.358C958.83 140.927 958.993 141.581 958.993 142.318C958.993 143.055 958.83 143.713 958.503 144.292C958.177 144.861 957.729 145.314 957.159 145.65C956.599 145.977 955.965 146.14 955.255 146.14ZM955.255 144.824C955.694 144.824 956.086 144.717 956.431 144.502C956.777 144.278 957.047 143.979 957.243 143.606C957.439 143.223 957.533 142.794 957.523 142.318C957.533 141.833 957.439 141.403 957.243 141.03C957.047 140.647 956.777 140.349 956.431 140.134C956.086 139.919 955.694 139.812 955.255 139.812C954.817 139.812 954.42 139.924 954.065 140.148C953.72 140.363 953.449 140.661 953.253 141.044C953.057 141.417 952.964 141.842 952.973 142.318C952.964 142.794 953.057 143.223 953.253 143.606C953.449 143.979 953.72 144.278 954.065 144.502C954.42 144.717 954.817 144.824 955.255 144.824ZM960.565 146V138.65H962.007V140.162L961.755 140.33C961.848 140.003 962.03 139.705 962.301 139.434C962.571 139.154 962.893 138.93 963.267 138.762C963.64 138.585 964.023 138.496 964.415 138.496C964.975 138.496 965.441 138.608 965.815 138.832C966.188 139.047 966.468 139.378 966.655 139.826C966.841 140.274 966.935 140.839 966.935 141.52V146H965.493V141.618C965.493 141.198 965.437 140.853 965.325 140.582C965.213 140.302 965.04 140.101 964.807 139.98C964.573 139.849 964.284 139.793 963.939 139.812C963.659 139.812 963.402 139.859 963.169 139.952C962.935 140.036 962.73 140.157 962.553 140.316C962.385 140.475 962.249 140.661 962.147 140.876C962.053 141.081 962.007 141.305 962.007 141.548V146H961.293C961.171 146 961.05 146 960.929 146C960.807 146 960.686 146 960.565 146ZM971.341 146.14C970.725 146.14 970.169 146.033 969.675 145.818C969.18 145.603 968.769 145.286 968.443 144.866L969.423 144.026C969.703 144.353 970.006 144.591 970.333 144.74C970.669 144.88 971.047 144.95 971.467 144.95C971.635 144.95 971.789 144.931 971.929 144.894C972.078 144.847 972.204 144.782 972.307 144.698C972.419 144.614 972.503 144.516 972.559 144.404C972.615 144.283 972.643 144.152 972.643 144.012C972.643 143.769 972.554 143.573 972.377 143.424C972.283 143.359 972.134 143.289 971.929 143.214C971.733 143.13 971.476 143.046 971.159 142.962C970.617 142.822 970.174 142.663 969.829 142.486C969.483 142.309 969.217 142.108 969.031 141.884C968.891 141.707 968.788 141.515 968.723 141.31C968.657 141.095 968.625 140.862 968.625 140.61C968.625 140.302 968.69 140.022 968.821 139.77C968.961 139.509 969.147 139.285 969.381 139.098C969.623 138.902 969.903 138.753 970.221 138.65C970.547 138.547 970.893 138.496 971.257 138.496C971.602 138.496 971.943 138.543 972.279 138.636C972.624 138.729 972.941 138.865 973.231 139.042C973.52 139.219 973.763 139.429 973.959 139.672L973.133 140.582C972.955 140.405 972.759 140.251 972.545 140.12C972.339 139.98 972.129 139.873 971.915 139.798C971.7 139.723 971.504 139.686 971.327 139.686C971.131 139.686 970.953 139.705 970.795 139.742C970.636 139.779 970.501 139.835 970.389 139.91C970.286 139.985 970.207 140.078 970.151 140.19C970.095 140.302 970.067 140.428 970.067 140.568C970.076 140.689 970.104 140.806 970.151 140.918C970.207 141.021 970.281 141.109 970.375 141.184C970.477 141.259 970.631 141.338 970.837 141.422C971.042 141.506 971.303 141.585 971.621 141.66C972.087 141.781 972.47 141.917 972.769 142.066C973.077 142.206 973.319 142.369 973.497 142.556C973.683 142.733 973.814 142.939 973.889 143.172C973.963 143.405 974.001 143.667 974.001 143.956C974.001 144.376 973.879 144.754 973.637 145.09C973.403 145.417 973.086 145.673 972.685 145.86C972.283 146.047 971.835 146.14 971.341 146.14Z" fill="#70737C"/>
<line x1="1007.5" y1="128" x2="1007.5" y2="153" stroke="#4FA083"/>
<path d="M1040.37 146V136.2H1044.36C1044.89 136.2 1045.37 136.335 1045.8 136.606C1046.24 136.867 1046.59 137.227 1046.85 137.684C1047.12 138.141 1047.25 138.65 1047.25 139.21C1047.25 139.77 1047.12 140.279 1046.85 140.736C1046.59 141.193 1046.24 141.562 1045.8 141.842C1045.37 142.113 1044.89 142.248 1044.36 142.248H1041.88V146H1040.37ZM1041.88 140.792H1044.33C1044.59 140.792 1044.81 140.722 1045.02 140.582C1045.23 140.433 1045.39 140.241 1045.51 140.008C1045.64 139.765 1045.71 139.499 1045.71 139.21C1045.71 138.921 1045.64 138.659 1045.51 138.426C1045.39 138.193 1045.23 138.006 1045.02 137.866C1044.81 137.726 1044.59 137.656 1044.33 137.656H1041.88V140.792ZM1048.88 146V138.65H1050.34V140.96L1050.2 140.4C1050.3 140.045 1050.47 139.723 1050.72 139.434C1050.97 139.145 1051.25 138.916 1051.57 138.748C1051.9 138.58 1052.23 138.496 1052.58 138.496C1052.74 138.496 1052.89 138.51 1053.03 138.538C1053.17 138.566 1053.29 138.599 1053.38 138.636L1053 140.204C1052.89 140.157 1052.76 140.12 1052.62 140.092C1052.49 140.055 1052.36 140.036 1052.23 140.036C1051.98 140.036 1051.73 140.087 1051.5 140.19C1051.28 140.283 1051.07 140.419 1050.9 140.596C1050.73 140.764 1050.59 140.965 1050.49 141.198C1050.39 141.422 1050.34 141.669 1050.34 141.94V146H1048.88ZM1054.77 146V138.65H1056.21V146H1054.77ZM1055.47 137.026C1055.16 137.026 1054.92 136.947 1054.75 136.788C1054.58 136.629 1054.5 136.405 1054.5 136.116C1054.5 135.845 1054.58 135.626 1054.75 135.458C1054.93 135.29 1055.17 135.206 1055.47 135.206C1055.77 135.206 1056.01 135.285 1056.18 135.444C1056.35 135.603 1056.43 135.827 1056.43 136.116C1056.43 136.387 1056.34 136.606 1056.17 136.774C1056 136.942 1055.76 137.026 1055.47 137.026ZM1060.83 146L1057.72 138.65H1059.28L1061.52 144.152L1061.25 144.278L1063.65 138.65H1065.13L1061.87 146H1060.83ZM1069.07 146.14C1068.47 146.14 1067.91 145.972 1067.41 145.636C1066.91 145.3 1066.51 144.843 1066.22 144.264C1065.92 143.685 1065.77 143.032 1065.77 142.304C1065.77 141.567 1065.92 140.913 1066.22 140.344C1066.52 139.765 1066.93 139.313 1067.45 138.986C1067.97 138.659 1068.55 138.496 1069.2 138.496C1069.58 138.496 1069.93 138.552 1070.25 138.664C1070.57 138.776 1070.84 138.935 1071.07 139.14C1071.32 139.336 1071.51 139.565 1071.66 139.826C1071.82 140.087 1071.92 140.367 1071.96 140.666L1071.63 140.554V138.65H1073.09V146H1071.63V144.25L1071.97 144.152C1071.91 144.404 1071.8 144.651 1071.62 144.894C1071.45 145.127 1071.23 145.337 1070.96 145.524C1070.7 145.711 1070.41 145.86 1070.08 145.972C1069.76 146.084 1069.43 146.14 1069.07 146.14ZM1069.45 144.81C1069.89 144.81 1070.28 144.703 1070.61 144.488C1070.95 144.273 1071.21 143.979 1071.4 143.606C1071.59 143.223 1071.69 142.789 1071.69 142.304C1071.69 141.828 1071.59 141.403 1071.4 141.03C1071.21 140.657 1070.95 140.363 1070.61 140.148C1070.28 139.933 1069.89 139.826 1069.45 139.826C1069.02 139.826 1068.64 139.933 1068.3 140.148C1067.98 140.363 1067.71 140.657 1067.52 141.03C1067.33 141.403 1067.24 141.828 1067.24 142.304C1067.24 142.789 1067.33 143.223 1067.52 143.606C1067.71 143.979 1067.98 144.273 1068.3 144.488C1068.64 144.703 1069.02 144.81 1069.45 144.81ZM1078.23 146.14C1077.54 146.14 1076.93 145.972 1076.39 145.636C1075.86 145.3 1075.44 144.843 1075.12 144.264C1074.81 143.685 1074.66 143.037 1074.66 142.318C1074.66 141.599 1074.81 140.951 1075.12 140.372C1075.44 139.793 1075.86 139.336 1076.39 139C1076.93 138.664 1077.54 138.496 1078.23 138.496C1078.88 138.496 1079.47 138.631 1080 138.902C1080.55 139.163 1080.96 139.523 1081.24 139.98L1080.44 140.96C1080.29 140.745 1080.1 140.549 1079.86 140.372C1079.63 140.195 1079.38 140.055 1079.12 139.952C1078.86 139.849 1078.61 139.798 1078.37 139.798C1077.92 139.798 1077.52 139.91 1077.16 140.134C1076.82 140.349 1076.54 140.647 1076.34 141.03C1076.13 141.413 1076.03 141.842 1076.03 142.318C1076.03 142.794 1076.14 143.223 1076.35 143.606C1076.56 143.979 1076.85 144.278 1077.2 144.502C1077.56 144.726 1077.95 144.838 1078.38 144.838C1078.63 144.838 1078.87 144.796 1079.11 144.712C1079.35 144.628 1079.58 144.502 1079.81 144.334C1080.03 144.166 1080.24 143.961 1080.44 143.718L1081.24 144.698C1080.94 145.118 1080.51 145.463 1079.95 145.734C1079.4 146.005 1078.82 146.14 1078.23 146.14ZM1083.62 149.22L1085.11 145.79L1085.12 146.938L1081.45 138.65H1083.13L1085.43 144.054C1085.48 144.147 1085.53 144.292 1085.6 144.488C1085.66 144.675 1085.72 144.861 1085.76 145.048L1085.4 145.132C1085.48 144.936 1085.55 144.74 1085.61 144.544C1085.69 144.348 1085.76 144.152 1085.82 143.956L1087.74 138.65H1089.45L1086.42 146L1085.18 149.22H1083.62ZM1094.81 146V136.2H1098.8C1099.34 136.2 1099.82 136.335 1100.25 136.606C1100.68 136.867 1101.03 137.227 1101.3 137.684C1101.56 138.141 1101.69 138.65 1101.69 139.21C1101.69 139.77 1101.56 140.279 1101.3 140.736C1101.03 141.193 1100.68 141.562 1100.25 141.842C1099.82 142.113 1099.34 142.248 1098.8 142.248H1096.33V146H1094.81ZM1096.33 140.792H1098.78C1099.03 140.792 1099.26 140.722 1099.46 140.582C1099.67 140.433 1099.83 140.241 1099.95 140.008C1100.08 139.765 1100.15 139.499 1100.15 139.21C1100.15 138.921 1100.08 138.659 1099.95 138.426C1099.83 138.193 1099.67 138.006 1099.46 137.866C1099.26 137.726 1099.03 137.656 1098.78 137.656H1096.33V140.792ZM1106.49 146.14C1105.77 146.14 1105.13 145.977 1104.56 145.65C1104 145.314 1103.55 144.861 1103.23 144.292C1102.9 143.713 1102.74 143.055 1102.74 142.318C1102.74 141.581 1102.9 140.927 1103.23 140.358C1103.55 139.779 1104 139.327 1104.56 139C1105.13 138.664 1105.77 138.496 1106.49 138.496C1107.2 138.496 1107.83 138.664 1108.39 139C1108.96 139.327 1109.41 139.779 1109.74 140.358C1110.06 140.927 1110.23 141.581 1110.23 142.318C1110.23 143.055 1110.06 143.713 1109.74 144.292C1109.41 144.861 1108.96 145.314 1108.39 145.65C1107.83 145.977 1107.2 146.14 1106.49 146.14ZM1106.49 144.824C1106.93 144.824 1107.32 144.717 1107.67 144.502C1108.01 144.278 1108.28 143.979 1108.48 143.606C1108.67 143.223 1108.77 142.794 1108.76 142.318C1108.77 141.833 1108.67 141.403 1108.48 141.03C1108.28 140.647 1108.01 140.349 1107.67 140.134C1107.32 139.919 1106.93 139.812 1106.49 139.812C1106.05 139.812 1105.65 139.924 1105.3 140.148C1104.95 140.363 1104.68 140.661 1104.49 141.044C1104.29 141.417 1104.2 141.842 1104.21 142.318C1104.2 142.794 1104.29 143.223 1104.49 143.606C1104.68 143.979 1104.95 144.278 1105.3 144.502C1105.65 144.717 1106.05 144.824 1106.49 144.824ZM1111.83 146V135.64H1113.27V146H1111.83ZM1115.55 146V138.65H1116.99V146H1115.55ZM1116.25 137.026C1115.94 137.026 1115.7 136.947 1115.54 136.788C1115.37 136.629 1115.28 136.405 1115.28 136.116C1115.28 135.845 1115.37 135.626 1115.54 135.458C1115.71 135.29 1115.95 135.206 1116.25 135.206C1116.56 135.206 1116.8 135.285 1116.96 135.444C1117.13 135.603 1117.22 135.827 1117.22 136.116C1117.22 136.387 1117.13 136.606 1116.95 136.774C1116.78 136.942 1116.55 137.026 1116.25 137.026ZM1122.33 146.14C1121.65 146.14 1121.04 145.972 1120.5 145.636C1119.97 145.3 1119.54 144.843 1119.22 144.264C1118.92 143.685 1118.76 143.037 1118.76 142.318C1118.76 141.599 1118.92 140.951 1119.22 140.372C1119.54 139.793 1119.97 139.336 1120.5 139C1121.04 138.664 1121.65 138.496 1122.33 138.496C1122.98 138.496 1123.58 138.631 1124.11 138.902C1124.65 139.163 1125.06 139.523 1125.34 139.98L1124.54 140.96C1124.39 140.745 1124.2 140.549 1123.97 140.372C1123.74 140.195 1123.49 140.055 1123.23 139.952C1122.97 139.849 1122.71 139.798 1122.47 139.798C1122.02 139.798 1121.62 139.91 1121.27 140.134C1120.92 140.349 1120.65 140.647 1120.44 141.03C1120.24 141.413 1120.13 141.842 1120.13 142.318C1120.13 142.794 1120.24 143.223 1120.46 143.606C1120.67 143.979 1120.95 144.278 1121.31 144.502C1121.66 144.726 1122.06 144.838 1122.49 144.838C1122.74 144.838 1122.98 144.796 1123.21 144.712C1123.46 144.628 1123.69 144.502 1123.91 144.334C1124.14 144.166 1124.35 143.961 1124.54 143.718L1125.34 144.698C1125.04 145.118 1124.61 145.463 1124.05 145.734C1123.5 146.005 1122.93 146.14 1122.33 146.14ZM1127.73 149.22L1129.21 145.79L1129.23 146.938L1125.56 138.65H1127.24L1129.53 144.054C1129.58 144.147 1129.64 144.292 1129.7 144.488C1129.77 144.675 1129.82 144.861 1129.87 145.048L1129.51 145.132C1129.58 144.936 1129.65 144.74 1129.72 144.544C1129.79 144.348 1129.86 144.152 1129.93 143.956L1131.84 138.65H1133.55L1130.53 146L1129.28 149.22H1127.73Z" fill="#70737C"/>
</g>
<path d="M1147.35 225L1151.14 215.2H1152.68L1156.45 225H1154.84L1152.6 219.092C1152.57 219.027 1152.52 218.868 1152.43 218.616C1152.36 218.364 1152.27 218.084 1152.17 217.776C1152.06 217.468 1151.97 217.188 1151.89 216.936C1151.8 216.675 1151.75 216.507 1151.72 216.432L1152.04 216.418C1151.98 216.577 1151.91 216.777 1151.83 217.02C1151.76 217.263 1151.67 217.519 1151.58 217.79C1151.49 218.061 1151.41 218.317 1151.33 218.56C1151.24 218.793 1151.17 218.989 1151.12 219.148L1148.89 225H1147.35ZM1149.03 222.564L1149.59 221.108H1154.04L1154.69 222.564H1149.03ZM1157.84 225V214.64H1159.28V225H1157.84ZM1161.35 225V214.64H1162.79V225H1161.35ZM1168.76 225V217.65H1170.22V219.96L1170.08 219.4C1170.18 219.045 1170.35 218.723 1170.6 218.434C1170.85 218.145 1171.13 217.916 1171.45 217.748C1171.78 217.58 1172.11 217.496 1172.46 217.496C1172.62 217.496 1172.77 217.51 1172.91 217.538C1173.06 217.566 1173.17 217.599 1173.26 217.636L1172.88 219.204C1172.77 219.157 1172.64 219.12 1172.5 219.092C1172.37 219.055 1172.24 219.036 1172.11 219.036C1171.86 219.036 1171.61 219.087 1171.38 219.19C1171.16 219.283 1170.96 219.419 1170.78 219.596C1170.61 219.764 1170.47 219.965 1170.37 220.198C1170.27 220.422 1170.22 220.669 1170.22 220.94V225H1168.76ZM1174.65 225V217.65H1176.09V225H1174.65ZM1175.35 216.026C1175.04 216.026 1174.8 215.947 1174.63 215.788C1174.46 215.629 1174.38 215.405 1174.38 215.116C1174.38 214.845 1174.46 214.626 1174.63 214.458C1174.81 214.29 1175.05 214.206 1175.35 214.206C1175.65 214.206 1175.89 214.285 1176.06 214.444C1176.23 214.603 1176.31 214.827 1176.31 215.116C1176.31 215.387 1176.22 215.606 1176.05 215.774C1175.88 215.942 1175.65 216.026 1175.35 216.026ZM1181.59 228.22C1181.07 228.22 1180.55 228.136 1180.03 227.968C1179.51 227.809 1179.1 227.599 1178.78 227.338L1179.31 226.218C1179.5 226.358 1179.72 226.479 1179.97 226.582C1180.22 226.694 1180.49 226.778 1180.77 226.834C1181.05 226.899 1181.32 226.932 1181.59 226.932C1182.11 226.932 1182.54 226.848 1182.88 226.68C1183.23 226.512 1183.49 226.265 1183.67 225.938C1183.84 225.611 1183.93 225.205 1183.93 224.72V223.306L1184.09 223.404C1184.04 223.693 1183.89 223.973 1183.62 224.244C1183.37 224.505 1183.06 224.72 1182.67 224.888C1182.29 225.056 1181.9 225.14 1181.5 225.14C1180.8 225.14 1180.17 224.977 1179.62 224.65C1179.08 224.314 1178.65 223.861 1178.33 223.292C1178.02 222.713 1177.86 222.055 1177.86 221.318C1177.86 220.581 1178.01 219.927 1178.32 219.358C1178.64 218.779 1179.07 218.327 1179.61 218C1180.16 217.664 1180.77 217.496 1181.45 217.496C1181.73 217.496 1182.01 217.533 1182.27 217.608C1182.53 217.673 1182.77 217.771 1182.99 217.902C1183.22 218.023 1183.42 218.159 1183.6 218.308C1183.77 218.457 1183.92 218.616 1184.03 218.784C1184.14 218.952 1184.21 219.111 1184.24 219.26L1183.93 219.372V217.65H1185.37V224.552C1185.37 225.14 1185.29 225.658 1185.11 226.106C1184.94 226.563 1184.69 226.946 1184.37 227.254C1184.04 227.571 1183.64 227.809 1183.18 227.968C1182.71 228.136 1182.18 228.22 1181.59 228.22ZM1181.65 223.81C1182.11 223.81 1182.51 223.703 1182.87 223.488C1183.22 223.273 1183.5 222.979 1183.69 222.606C1183.89 222.233 1183.99 221.803 1183.99 221.318C1183.99 220.833 1183.89 220.403 1183.68 220.03C1183.48 219.647 1183.21 219.349 1182.85 219.134C1182.51 218.919 1182.11 218.812 1181.65 218.812C1181.2 218.812 1180.8 218.924 1180.45 219.148C1180.1 219.363 1179.83 219.661 1179.62 220.044C1179.42 220.417 1179.33 220.842 1179.33 221.318C1179.33 221.794 1179.42 222.223 1179.62 222.606C1179.83 222.979 1180.1 223.273 1180.45 223.488C1180.8 223.703 1181.2 223.81 1181.65 223.81ZM1187.4 225V214.64H1188.84V219.162L1188.59 219.33C1188.68 219.003 1188.86 218.705 1189.13 218.434C1189.4 218.154 1189.73 217.93 1190.1 217.762C1190.47 217.585 1190.85 217.496 1191.25 217.496C1191.81 217.496 1192.27 217.608 1192.65 217.832C1193.02 218.047 1193.3 218.378 1193.49 218.826C1193.67 219.274 1193.77 219.839 1193.77 220.52V225H1192.32V220.618C1192.32 220.198 1192.27 219.853 1192.16 219.582C1192.04 219.302 1191.87 219.101 1191.64 218.98C1191.41 218.849 1191.12 218.793 1190.77 218.812C1190.49 218.812 1190.23 218.859 1190 218.952C1189.77 219.036 1189.56 219.157 1189.38 219.316C1189.22 219.475 1189.08 219.661 1188.98 219.876C1188.89 220.081 1188.84 220.305 1188.84 220.548V225H1188.12C1188 225 1187.88 225 1187.76 225C1187.64 225 1187.52 225 1187.4 225ZM1196.63 225V215.774H1198.07V225H1196.63ZM1195.11 219.05V217.65H1199.78V219.05H1195.11ZM1203.82 225.14C1203.2 225.14 1202.65 225.033 1202.15 224.818C1201.66 224.603 1201.25 224.286 1200.92 223.866L1201.9 223.026C1202.18 223.353 1202.48 223.591 1202.81 223.74C1203.15 223.88 1203.53 223.95 1203.95 223.95C1204.11 223.95 1204.27 223.931 1204.41 223.894C1204.56 223.847 1204.68 223.782 1204.79 223.698C1204.9 223.614 1204.98 223.516 1205.04 223.404C1205.09 223.283 1205.12 223.152 1205.12 223.012C1205.12 222.769 1205.03 222.573 1204.86 222.424C1204.76 222.359 1204.61 222.289 1204.41 222.214C1204.21 222.13 1203.95 222.046 1203.64 221.962C1203.1 221.822 1202.65 221.663 1202.31 221.486C1201.96 221.309 1201.7 221.108 1201.51 220.884C1201.37 220.707 1201.27 220.515 1201.2 220.31C1201.14 220.095 1201.1 219.862 1201.1 219.61C1201.1 219.302 1201.17 219.022 1201.3 218.77C1201.44 218.509 1201.63 218.285 1201.86 218.098C1202.1 217.902 1202.38 217.753 1202.7 217.65C1203.03 217.547 1203.37 217.496 1203.74 217.496C1204.08 217.496 1204.42 217.543 1204.76 217.636C1205.1 217.729 1205.42 217.865 1205.71 218.042C1206 218.219 1206.24 218.429 1206.44 218.672L1205.61 219.582C1205.43 219.405 1205.24 219.251 1205.02 219.12C1204.82 218.98 1204.61 218.873 1204.39 218.798C1204.18 218.723 1203.98 218.686 1203.81 218.686C1203.61 218.686 1203.43 218.705 1203.27 218.742C1203.11 218.779 1202.98 218.835 1202.87 218.91C1202.76 218.985 1202.69 219.078 1202.63 219.19C1202.57 219.302 1202.55 219.428 1202.55 219.568C1202.55 219.689 1202.58 219.806 1202.63 219.918C1202.69 220.021 1202.76 220.109 1202.85 220.184C1202.96 220.259 1203.11 220.338 1203.32 220.422C1203.52 220.506 1203.78 220.585 1204.1 220.66C1204.57 220.781 1204.95 220.917 1205.25 221.066C1205.56 221.206 1205.8 221.369 1205.98 221.556C1206.16 221.733 1206.29 221.939 1206.37 222.172C1206.44 222.405 1206.48 222.667 1206.48 222.956C1206.48 223.376 1206.36 223.754 1206.12 224.09C1205.88 224.417 1205.56 224.673 1205.16 224.86C1204.76 225.047 1204.31 225.14 1203.82 225.14ZM1211.99 225V217.65H1213.45V219.96L1213.31 219.4C1213.41 219.045 1213.58 218.723 1213.83 218.434C1214.08 218.145 1214.36 217.916 1214.68 217.748C1215.01 217.58 1215.34 217.496 1215.69 217.496C1215.85 217.496 1216 217.51 1216.14 217.538C1216.29 217.566 1216.4 217.599 1216.49 217.636L1216.11 219.204C1216 219.157 1215.87 219.12 1215.73 219.092C1215.6 219.055 1215.47 219.036 1215.34 219.036C1215.09 219.036 1214.84 219.087 1214.61 219.19C1214.39 219.283 1214.19 219.419 1214.01 219.596C1213.84 219.764 1213.71 219.965 1213.6 220.198C1213.5 220.422 1213.45 220.669 1213.45 220.94V225H1211.99ZM1220.75 225.14C1220 225.14 1219.33 224.981 1218.74 224.664C1218.16 224.337 1217.7 223.894 1217.37 223.334C1217.04 222.774 1216.88 222.13 1216.88 221.402C1216.88 220.823 1216.97 220.296 1217.16 219.82C1217.34 219.344 1217.6 218.933 1217.93 218.588C1218.26 218.233 1218.66 217.963 1219.12 217.776C1219.58 217.58 1220.09 217.482 1220.63 217.482C1221.1 217.482 1221.55 217.575 1221.96 217.762C1222.37 217.939 1222.72 218.187 1223.02 218.504C1223.33 218.821 1223.56 219.199 1223.72 219.638C1223.89 220.067 1223.97 220.539 1223.96 221.052L1223.95 221.668H1217.94L1217.62 220.52H1222.7L1222.49 220.758V220.422C1222.46 220.114 1222.36 219.839 1222.18 219.596C1222.01 219.353 1221.78 219.162 1221.51 219.022C1221.24 218.882 1220.95 218.812 1220.63 218.812C1220.12 218.812 1219.7 218.91 1219.35 219.106C1219.01 219.293 1218.75 219.573 1218.57 219.946C1218.39 220.31 1218.3 220.763 1218.3 221.304C1218.3 221.817 1218.41 222.265 1218.63 222.648C1218.84 223.021 1219.14 223.311 1219.54 223.516C1219.93 223.721 1220.38 223.824 1220.89 223.824C1221.26 223.824 1221.59 223.763 1221.9 223.642C1222.22 223.521 1222.56 223.301 1222.92 222.984L1223.65 224.006C1223.43 224.23 1223.15 224.426 1222.83 224.594C1222.51 224.762 1222.17 224.897 1221.8 225C1221.45 225.093 1221.1 225.14 1220.75 225.14ZM1227.98 225.14C1227.36 225.14 1226.81 225.033 1226.31 224.818C1225.82 224.603 1225.41 224.286 1225.08 223.866L1226.06 223.026C1226.34 223.353 1226.64 223.591 1226.97 223.74C1227.31 223.88 1227.68 223.95 1228.1 223.95C1228.27 223.95 1228.43 223.931 1228.57 223.894C1228.71 223.847 1228.84 223.782 1228.94 223.698C1229.06 223.614 1229.14 223.516 1229.2 223.404C1229.25 223.283 1229.28 223.152 1229.28 223.012C1229.28 222.769 1229.19 222.573 1229.01 222.424C1228.92 222.359 1228.77 222.289 1228.57 222.214C1228.37 222.13 1228.11 222.046 1227.8 221.962C1227.25 221.822 1226.81 221.663 1226.47 221.486C1226.12 221.309 1225.85 221.108 1225.67 220.884C1225.53 220.707 1225.42 220.515 1225.36 220.31C1225.29 220.095 1225.26 219.862 1225.26 219.61C1225.26 219.302 1225.33 219.022 1225.46 218.77C1225.6 218.509 1225.78 218.285 1226.02 218.098C1226.26 217.902 1226.54 217.753 1226.86 217.65C1227.18 217.547 1227.53 217.496 1227.89 217.496C1228.24 217.496 1228.58 217.543 1228.92 217.636C1229.26 217.729 1229.58 217.865 1229.87 218.042C1230.16 218.219 1230.4 218.429 1230.6 218.672L1229.77 219.582C1229.59 219.405 1229.4 219.251 1229.18 219.12C1228.98 218.98 1228.77 218.873 1228.55 218.798C1228.34 218.723 1228.14 218.686 1227.96 218.686C1227.77 218.686 1227.59 218.705 1227.43 218.742C1227.27 218.779 1227.14 218.835 1227.03 218.91C1226.92 218.985 1226.84 219.078 1226.79 219.19C1226.73 219.302 1226.7 219.428 1226.7 219.568C1226.71 219.689 1226.74 219.806 1226.79 219.918C1226.84 220.021 1226.92 220.109 1227.01 220.184C1227.11 220.259 1227.27 220.338 1227.47 220.422C1227.68 220.506 1227.94 220.585 1228.26 220.66C1228.72 220.781 1229.11 220.917 1229.41 221.066C1229.71 221.206 1229.96 221.369 1230.13 221.556C1230.32 221.733 1230.45 221.939 1230.53 222.172C1230.6 222.405 1230.64 222.667 1230.64 222.956C1230.64 223.376 1230.52 223.754 1230.27 224.09C1230.04 224.417 1229.72 224.673 1229.32 224.86C1228.92 225.047 1228.47 225.14 1227.98 225.14ZM1235.66 225.14C1234.9 225.14 1234.23 224.981 1233.64 224.664C1233.06 224.337 1232.6 223.894 1232.27 223.334C1231.94 222.774 1231.78 222.13 1231.78 221.402C1231.78 220.823 1231.87 220.296 1232.06 219.82C1232.25 219.344 1232.5 218.933 1232.83 218.588C1233.16 218.233 1233.56 217.963 1234.02 217.776C1234.49 217.58 1234.99 217.482 1235.53 217.482C1236.01 217.482 1236.45 217.575 1236.86 217.762C1237.27 217.939 1237.63 218.187 1237.92 218.504C1238.23 218.821 1238.47 219.199 1238.62 219.638C1238.79 220.067 1238.87 220.539 1238.86 221.052L1238.85 221.668H1232.84L1232.52 220.52H1237.6L1237.39 220.758V220.422C1237.36 220.114 1237.26 219.839 1237.08 219.596C1236.91 219.353 1236.68 219.162 1236.41 219.022C1236.14 218.882 1235.85 218.812 1235.53 218.812C1235.03 218.812 1234.6 218.91 1234.26 219.106C1233.91 219.293 1233.65 219.573 1233.47 219.946C1233.3 220.31 1233.21 220.763 1233.21 221.304C1233.21 221.817 1233.31 222.265 1233.53 222.648C1233.74 223.021 1234.05 223.311 1234.44 223.516C1234.83 223.721 1235.28 223.824 1235.8 223.824C1236.16 223.824 1236.5 223.763 1236.8 223.642C1237.12 223.521 1237.46 223.301 1237.83 222.984L1238.55 224.006C1238.33 224.23 1238.06 224.426 1237.73 224.594C1237.41 224.762 1237.07 224.897 1236.71 225C1236.35 225.093 1236 225.14 1235.66 225.14ZM1240.43 225V217.65H1241.89V219.96L1241.75 219.4C1241.85 219.045 1242.02 218.723 1242.26 218.434C1242.52 218.145 1242.8 217.916 1243.12 217.748C1243.44 217.58 1243.78 217.496 1244.13 217.496C1244.28 217.496 1244.43 217.51 1244.57 217.538C1244.72 217.566 1244.84 217.599 1244.92 217.636L1244.55 219.204C1244.43 219.157 1244.31 219.12 1244.17 219.092C1244.04 219.055 1243.91 219.036 1243.78 219.036C1243.52 219.036 1243.28 219.087 1243.05 219.19C1242.82 219.283 1242.62 219.419 1242.45 219.596C1242.28 219.764 1242.14 219.965 1242.04 220.198C1241.94 220.422 1241.89 220.669 1241.89 220.94V225H1240.43ZM1249.18 225L1246.07 217.65H1247.63L1249.87 223.152L1249.6 223.278L1252 217.65H1253.48L1250.22 225H1249.18ZM1258.02 225.14C1257.27 225.14 1256.6 224.981 1256.01 224.664C1255.43 224.337 1254.97 223.894 1254.64 223.334C1254.31 222.774 1254.15 222.13 1254.15 221.402C1254.15 220.823 1254.24 220.296 1254.43 219.82C1254.61 219.344 1254.87 218.933 1255.2 218.588C1255.53 218.233 1255.93 217.963 1256.39 217.776C1256.85 217.58 1257.36 217.482 1257.9 217.482C1258.37 217.482 1258.82 217.575 1259.23 217.762C1259.64 217.939 1259.99 218.187 1260.29 218.504C1260.6 218.821 1260.83 219.199 1260.99 219.638C1261.16 220.067 1261.24 220.539 1261.23 221.052L1261.22 221.668H1255.21L1254.89 220.52H1259.97L1259.76 220.758V220.422C1259.73 220.114 1259.63 219.839 1259.45 219.596C1259.27 219.353 1259.05 219.162 1258.78 219.022C1258.51 218.882 1258.22 218.812 1257.9 218.812C1257.39 218.812 1256.97 218.91 1256.62 219.106C1256.28 219.293 1256.02 219.573 1255.84 219.946C1255.66 220.31 1255.57 220.763 1255.57 221.304C1255.57 221.817 1255.68 222.265 1255.9 222.648C1256.11 223.021 1256.41 223.311 1256.81 223.516C1257.2 223.721 1257.65 223.824 1258.16 223.824C1258.53 223.824 1258.86 223.763 1259.17 223.642C1259.49 223.521 1259.83 223.301 1260.19 222.984L1260.92 224.006C1260.7 224.23 1260.42 224.426 1260.1 224.594C1259.78 224.762 1259.44 224.897 1259.07 225C1258.72 225.093 1258.37 225.14 1258.02 225.14ZM1265.86 225.14C1265.19 225.14 1264.59 224.977 1264.06 224.65C1263.53 224.314 1263.12 223.861 1262.81 223.292C1262.5 222.713 1262.35 222.055 1262.35 221.318C1262.35 220.581 1262.5 219.927 1262.8 219.358C1263.11 218.779 1263.52 218.327 1264.04 218C1264.57 217.664 1265.16 217.496 1265.82 217.496C1266.19 217.496 1266.54 217.557 1266.87 217.678C1267.22 217.79 1267.52 217.949 1267.8 218.154C1268.07 218.35 1268.28 218.569 1268.43 218.812C1268.58 219.045 1268.66 219.283 1268.66 219.526L1268.24 219.554V214.64H1269.69V225H1268.24V223.25H1268.52C1268.52 223.474 1268.45 223.698 1268.3 223.922C1268.15 224.137 1267.95 224.337 1267.7 224.524C1267.45 224.711 1267.17 224.86 1266.84 224.972C1266.53 225.084 1266.2 225.14 1265.86 225.14ZM1266.06 223.894C1266.5 223.894 1266.89 223.782 1267.22 223.558C1267.56 223.334 1267.82 223.031 1268.01 222.648C1268.2 222.256 1268.3 221.813 1268.3 221.318C1268.3 220.823 1268.2 220.385 1268.01 220.002C1267.82 219.61 1267.56 219.302 1267.22 219.078C1266.89 218.854 1266.5 218.742 1266.06 218.742C1265.62 218.742 1265.23 218.854 1264.9 219.078C1264.56 219.302 1264.3 219.61 1264.1 220.002C1263.91 220.385 1263.82 220.823 1263.82 221.318C1263.82 221.813 1263.91 222.256 1264.1 222.648C1264.3 223.031 1264.56 223.334 1264.9 223.558C1265.23 223.782 1265.62 223.894 1266.06 223.894Z" fill="#70737C"/>
<line opacity="0.3" x1="165" y1="187.5" x2="1272" y2="187.5" stroke="#359740"/>
<path fill-rule="evenodd" clip-rule="evenodd" d="M212 219.056C212 224.028 215.611 228.162 220.333 229V221.778H217.833V219H220.333V216.778C220.333 214.278 221.944 212.889 224.222 212.889C224.944 212.889 225.722 213 226.444 213.111V215.667H225.167C223.944 215.667 223.667 216.277 223.667 217.056V219H226.333L225.889 221.778H223.667V229C228.389 228.162 232 224.028 232 219.056C232 213.525 227.5 209 222 209C216.5 209 212 213.525 212 219.056Z" fill="#359740"/>
<path d="M174 215.876C172.28 215.876 170.876 217.28 170.876 219C170.876 220.72 172.28 222.124 174 222.124C175.72 222.124 177.124 220.72 177.124 219C177.124 217.28 175.72 215.876 174 215.876ZM183.37 219C183.37 217.706 183.382 216.424 183.309 215.133C183.237 213.633 182.895 212.302 181.798 211.205C180.698 210.105 179.37 209.766 177.87 209.693C176.576 209.62 175.294 209.632 174.002 209.632C172.709 209.632 171.427 209.62 170.135 209.693C168.635 209.766 167.304 210.108 166.207 211.205C165.108 212.304 164.768 213.633 164.695 215.133C164.623 216.427 164.634 217.709 164.634 219C164.634 220.291 164.623 221.576 164.695 222.867C164.768 224.367 165.11 225.698 166.207 226.795C167.306 227.895 168.635 228.234 170.135 228.307C171.429 228.38 172.711 228.368 174.002 228.368C175.296 228.368 176.578 228.38 177.87 228.307C179.37 228.234 180.701 227.892 181.798 226.795C182.897 225.696 183.237 224.367 183.309 222.867C183.384 221.576 183.37 220.294 183.37 219ZM174 223.807C171.34 223.807 169.193 221.66 169.193 219C169.193 216.34 171.34 214.193 174 214.193C176.66 214.193 178.807 216.34 178.807 219C178.807 221.66 176.66 223.807 174 223.807ZM179.004 215.119C178.383 215.119 177.881 214.617 177.881 213.996C177.881 213.375 178.383 212.873 179.004 212.873C179.625 212.873 180.127 213.375 180.127 213.996C180.127 214.144 180.098 214.29 180.041 214.426C179.985 214.562 179.902 214.686 179.798 214.79C179.694 214.895 179.57 214.977 179.434 215.034C179.297 215.09 179.151 215.119 179.004 215.119Z" fill="#359740"/>
</g>
<defs>
<filter id="filter0_d_11_666" x="-80" y="0" width="1600" height="332" filterUnits="userSpaceOnUse" color-interpolation-filters="sRGB">
<feFlood flood-opacity="0" result="BackgroundImageFix"/>
<feColorMatrix in="SourceAlpha" type="matrix" values="0 0 0 0 0 0 0 0 0 0 0 0 0 0 0 0 0 0 127 0" result="hardAlpha"/>
<feOffset dy="-7"/>
<feGaussianBlur stdDeviation="40"/>
<feComposite in2="hardAlpha" operator="out"/>
<feColorMatrix type="matrix" values="0 0 0 0 0.741565 0 0 0 0 0.741565 0 0 0 0 0.741565 0 0 0 0.25 0"/>
<feBlend mode="normal" in2="BackgroundImageFix" result="effect1_dropShadow_11_666"/>
<feBlend mode="normal" in="SourceGraphic" in2="effect1_dropShadow_11_666" result="shape"/>
</filter>
<clipPath id="clip0_11_666">
<rect width="125" height="27" fill="white" transform="translate(657 128)"/>
</clipPath>
<clipPath id="clip1_11_666">
<rect width="415" height="25" fill="white" transform="translate(167 128)"/>
</clipPath>
<clipPath id="clip2_11_666">
<rect width="282" height="25" fill="white" transform="translate(852 128)"/>
</clipPath>
</defs>
</svg>
